<svg width="189" height="128" viewBox="0 0 189 128" fill="none" xmlns="http://www.w3.org/2000/svg">
<path d="M77.5309 9.6069L67.936 0V19.2138H67.9544L77.5309 9.6069Z" fill="#FFE4CC"/>
<path d="M93.541 19.2322L103.136 9.6069L93.541 0L83.9277 9.6069L93.541 19.2322Z" fill="#FFE4CC"/>
<path d="M119.145 19.2138V0L109.532 9.6069L119.127 19.2138H119.145Z" fill="#FFE4CC"/>
<path d="M93.5407 25.6368L80.7292 12.8092L67.936 25.6368V48.513H119.164V25.6552L106.334 12.8092L93.5407 25.6368Z" fill="#FFE4CC"/>
<path d="M7.88527 71.1131L13.6753 79.0085H10.3851L6.28612 73.4137L2.35259 79.0085H1.89307V63.6043H4.53993V75.0884L12.6092 63.6043H13.179L7.88527 71.1131Z" fill="#FFE4CC"/>
<path d="M23.5645 68.0029L23.3623 68.4446C22.8476 68.2237 22.3329 68.1133 21.7999 68.1133C21.2668 68.1133 20.8073 68.2789 20.4397 68.6102C20.0537 68.9415 19.7964 69.2728 19.6493 69.6408C19.4839 70.1193 19.392 70.8555 19.392 71.8125V78.9901H16.7451V67.7636H19.392V68.6102C20.0537 67.9477 20.8441 67.6348 21.7999 67.6348C22.1491 67.6348 22.4432 67.6716 22.7006 67.7268C22.9579 67.782 23.252 67.874 23.5645 68.0029Z" fill="#FFE4CC"/>
<path d="M38.5635 63.6043H41.2103V79.0085H38.5635V63.6043Z" fill="#FFE4CC"/>
<path d="M55.9702 73.3769C55.9702 74.1498 55.8231 74.8676 55.529 75.5669C55.235 76.2663 54.8306 76.892 54.2791 77.4441C53.7277 77.9963 53.1028 78.4012 52.4043 78.6956C51.7058 78.9901 50.9706 79.1373 50.1986 79.1373C49.4266 79.1373 48.7097 78.9901 48.0112 78.6956C47.3127 78.4012 46.6878 77.9963 46.1364 77.4441C45.5849 76.8736 45.1806 76.2479 44.8865 75.5669C44.5924 74.8676 44.4453 74.1498 44.4453 73.3769C44.4453 72.6039 44.5924 71.8861 44.8865 71.1684C45.1806 70.469 45.5849 69.8433 46.1364 69.2912C46.7062 68.739 47.3311 68.3341 48.0112 68.0397C48.7097 67.7452 49.4266 67.598 50.1986 67.598C50.9706 67.598 51.6874 67.7452 52.4043 68.0397C53.1028 68.3341 53.7277 68.739 54.2791 69.2912C54.8306 69.8433 55.235 70.469 55.529 71.1684C55.8231 71.8861 55.9702 72.6223 55.9702 73.3769ZM53.213 73.3769C53.213 72.4382 53.1579 71.6285 53.066 70.9107C52.9741 70.2114 52.6984 69.5672 52.2756 68.9783C51.8345 68.3894 51.1544 68.0949 50.2169 68.0949C49.2795 68.0949 48.5994 68.3894 48.1583 68.9783C47.7171 69.5672 47.4598 70.2114 47.3679 70.9107C47.276 71.6101 47.2208 72.4382 47.2208 73.3769C47.2208 74.3155 47.276 75.1252 47.3679 75.843C47.4598 76.5423 47.7171 77.1865 48.1583 77.7754C48.5994 78.3643 49.2795 78.6588 50.2169 78.6588C51.1544 78.6588 51.8345 78.3643 52.2756 77.7754C52.7168 77.1865 52.9741 76.5423 53.066 75.843C53.1763 75.1252 53.213 74.3155 53.213 73.3769Z" fill="#FFE4CC"/>
<path d="M73.3217 67.7636L68.6713 79.1373L65.3995 72.5671L62.2012 79.1373L57.5508 67.7636H60.3815L63.4878 75.4013L66.5942 69.0519L69.7006 75.3461L72.807 67.7636H73.3217Z" fill="#FFE4CC"/>
<path d="M86.1335 73.6345H77.7518C77.7518 74.4995 77.8069 75.2725 77.9172 75.9718C78.0275 76.6712 78.3032 77.2969 78.7443 77.8306C79.1855 78.3643 79.8472 78.6404 80.7479 78.6404C81.6302 78.6404 82.4757 78.438 83.2477 78.0147C84.0197 77.5914 84.663 77.0024 85.1409 76.2663L85.5637 76.5423C85.0123 77.3521 84.3138 77.9963 83.4683 78.4564C82.6227 78.9165 81.7037 79.1557 80.7479 79.1557C79.9759 79.1557 79.259 79.0085 78.5605 78.714C77.8621 78.4196 77.2371 78.0147 76.6857 77.4625C76.1343 76.892 75.7299 76.2663 75.4358 75.5853C75.1417 74.886 74.9946 74.1682 74.9946 73.3953C74.9946 72.6223 75.1417 71.9045 75.4174 71.1868C75.6931 70.4874 76.0975 69.8617 76.6122 69.3096C77.1636 68.7574 77.7702 68.3526 78.4503 68.0581C79.1303 67.7636 79.8656 67.6164 80.6192 67.6164C81.3912 67.6164 82.1081 67.7636 82.7882 68.0581C83.4683 68.3526 84.0565 68.7574 84.5711 69.3096C85.0674 69.8617 85.4534 70.4874 85.7291 71.1868C86.0048 71.8861 86.1335 72.6223 86.1335 73.3953V73.6345ZM77.7518 73.1376H83.3764C83.358 72.2726 83.3028 71.4996 83.1926 70.8187C83.0823 70.1561 82.8249 69.5304 82.4205 68.9967C82.0162 68.4446 81.3728 68.1501 80.5457 68.1133C79.7002 68.1685 79.0752 68.463 78.6708 68.9967C78.2664 69.5488 78.0091 70.1561 77.8988 70.8371C77.7885 71.518 77.7518 72.291 77.7518 73.1376Z" fill="#FFE4CC"/>
<path d="M92.475 67.7636V78.714C92.475 80.1127 92.1625 81.2538 91.5192 82.1004C90.8207 83.0206 89.8465 83.4807 88.5966 83.4807C87.843 83.4807 87.2364 83.2966 86.7585 82.9469C86.2806 82.5789 85.913 82.1188 85.6924 81.5666H86.299L86.3725 81.6771C86.5195 81.9899 86.7217 82.266 86.9974 82.5052C87.2731 82.7445 87.5672 82.8549 87.8613 82.8549C88.4679 82.8549 88.9091 82.6525 89.2031 82.2292C89.4972 81.8059 89.6627 81.309 89.7362 80.7569C89.8097 80.1863 89.8465 79.5238 89.8465 78.714V67.7636H92.475ZM91.1332 66.1073C90.7655 66.1073 90.4347 65.9784 90.1773 65.7208C89.92 65.4631 89.7913 65.1503 89.7913 64.8006C89.7913 64.4509 89.92 64.138 90.1957 63.862C90.4531 63.6043 90.7655 63.4571 91.1332 63.4571C91.4824 63.4571 91.7949 63.5859 92.0706 63.862C92.3279 64.1196 92.475 64.4325 92.475 64.8006C92.475 65.1687 92.3463 65.4631 92.089 65.7208C91.8316 65.9784 91.5192 66.1073 91.1332 66.1073Z" fill="#FFE4CC"/>
<path d="M111.701 63.6043V72.5855C111.701 74.9228 111.058 76.6528 109.753 77.7754C108.742 78.6772 107.437 79.1373 105.819 79.1373C105.011 79.1373 104.257 78.9717 103.595 78.6588C102.915 78.3459 102.364 77.8674 101.941 77.2233L102.382 76.9656C102.731 77.5362 103.154 77.9594 103.687 78.2355C104.22 78.53 104.772 78.6772 105.341 78.6772C106.407 78.6772 107.29 78.3459 107.988 77.7018C108.705 77.0392 109.054 75.8062 109.054 73.9842V63.6227H111.701V63.6043Z" fill="#FFE4CC"/>
<path d="M126.296 67.7636V78.9901H123.649V78.2171C122.693 78.8244 121.664 79.1373 120.542 79.1373C119.77 79.1373 119.053 78.9901 118.355 78.6956C117.657 78.4012 117.032 77.9963 116.48 77.4441C115.929 76.8736 115.524 76.2479 115.23 75.5669C114.936 74.8676 114.789 74.1498 114.789 73.3769C114.789 72.6039 114.936 71.8861 115.23 71.1684C115.524 70.469 115.929 69.8433 116.48 69.2912C117.05 68.739 117.675 68.3341 118.355 68.0397C119.053 67.7452 119.77 67.598 120.542 67.598C121.664 67.598 122.693 67.9109 123.649 68.5182V67.7452H126.296V67.7636ZM123.667 77.6466V69.1255C122.766 68.463 121.719 68.1133 120.561 68.1133C119.623 68.1133 118.943 68.4078 118.502 68.9967C118.061 69.5856 117.804 70.2298 117.712 70.9291C117.62 71.6285 117.565 72.4566 117.565 73.3953C117.565 74.3339 117.62 75.1436 117.712 75.8614C117.804 76.5607 118.061 77.2049 118.502 77.7938C118.943 78.3827 119.623 78.6772 120.561 78.6772C121.719 78.6404 122.748 78.3091 123.667 77.6466Z" fill="#FFE4CC"/>
<path d="M131.038 69.3096C131.589 68.7574 132.196 68.3525 132.894 68.0581C133.593 67.7636 134.328 67.6164 135.1 67.6164C136.276 67.6164 137.306 67.9293 138.206 68.5366V63.6043H140.853V79.0085H138.225V78.2171C137.269 78.8244 136.24 79.1373 135.118 79.1373C134.346 79.1373 133.63 78.9901 132.931 78.6956C132.233 78.4011 131.608 77.9963 131.056 77.4441C130.505 76.8736 130.1 76.2479 129.806 75.5669C129.512 74.8676 129.365 74.1498 129.365 73.3768C129.365 72.6039 129.512 71.8861 129.806 71.1684C130.082 70.469 130.505 69.8617 131.038 69.3096ZM135.118 78.6404C136.295 78.6404 137.324 78.2907 138.225 77.6098V69.1071C137.324 68.4446 136.276 68.0949 135.118 68.0949C134.181 68.0949 133.501 68.3894 133.06 68.9783C132.619 69.5672 132.361 70.2114 132.269 70.9107C132.178 71.6101 132.122 72.4382 132.122 73.3768C132.122 74.3155 132.178 75.1252 132.269 75.843C132.361 76.5423 132.619 77.1865 133.06 77.7754C133.483 78.3459 134.181 78.6404 135.118 78.6404Z" fill="#FFE4CC"/>
<path d="M159.087 67.7636L154.437 79.1373L151.165 72.5671L147.967 79.1373L143.316 67.7636H146.147L149.253 75.4013L152.36 69.0519L155.466 75.3461L158.573 67.7636H159.087Z" fill="#FFE4CC"/>
<path d="M163.113 66.1073C162.745 66.1073 162.414 65.9784 162.157 65.7208C161.9 65.4631 161.771 65.1503 161.771 64.8006C161.771 64.4509 161.9 64.138 162.175 63.862C162.433 63.6043 162.745 63.4571 163.113 63.4571C163.462 63.4571 163.775 63.5859 164.05 63.862C164.308 64.1196 164.455 64.4325 164.455 64.8006C164.455 65.1687 164.326 65.4631 164.069 65.7208C163.793 65.9784 163.48 66.1073 163.113 66.1073ZM164.418 78.9901H161.771V67.7636H164.418V78.9901Z" fill="#FFE4CC"/>
<path d="M179.251 77.9963C179.251 78.9717 179.049 79.8735 178.663 80.7017C178.277 81.5298 177.652 82.2108 176.825 82.7261C175.998 83.2414 174.913 83.4991 173.627 83.4991C172.45 83.4991 171.439 83.2598 170.575 82.7997C169.712 82.3396 169.068 81.6771 168.627 80.8121L169.068 80.5728C169.454 81.3458 170.042 81.9531 170.851 82.3764C171.642 82.7997 172.579 83.0022 173.627 83.0022C174.877 83.0022 175.685 82.5421 176.053 81.6034C176.421 80.6832 176.623 79.5422 176.623 78.2171C175.667 78.8244 174.638 79.1373 173.516 79.1373C172.744 79.1373 172.028 78.9901 171.329 78.6956C170.631 78.4012 170.006 77.9963 169.454 77.4441C168.903 76.8736 168.498 76.2479 168.204 75.5669C167.91 74.8676 167.763 74.1498 167.763 73.3769C167.763 72.6039 167.91 71.8861 168.204 71.1684C168.498 70.469 168.903 69.8433 169.454 69.2912C170.024 68.739 170.649 68.3341 171.329 68.0397C172.028 67.7452 172.744 67.598 173.516 67.598C174.638 67.598 175.667 67.9109 176.623 68.5182V67.7452H179.27V77.9963H179.251ZM173.498 78.6404C174.674 78.6404 175.704 78.3091 176.604 77.6282V69.1071C175.704 68.4446 174.656 68.0949 173.498 68.0949C172.561 68.0949 171.881 68.3894 171.439 68.9783C170.998 69.5672 170.741 70.2114 170.649 70.9107C170.557 71.6101 170.502 72.4382 170.502 73.3769C170.502 74.3155 170.557 75.1252 170.649 75.843C170.741 76.5423 170.998 77.1865 171.439 77.7754C171.881 78.3459 172.579 78.6404 173.498 78.6404Z" fill="#FFE4CC"/>
<path d="M184.582 66.1073C184.214 66.1073 183.883 65.9784 183.626 65.7208C183.368 65.4631 183.24 65.1503 183.24 64.8006C183.24 64.4509 183.368 64.138 183.644 63.862C183.901 63.6043 184.214 63.4571 184.582 63.4571C184.931 63.4571 185.243 63.5859 185.519 63.862C185.776 64.1196 185.923 64.4325 185.923 64.8006C185.923 65.1687 185.795 65.4631 185.537 65.7208C185.28 65.9784 184.968 66.1073 184.582 66.1073ZM185.887 78.9901H183.258V67.7636H185.905V78.9901H185.887Z" fill="#FFE4CC"/>
<path d="M49.5919 103.394H46.8715L46.1914 100.099C45.9525 98.9769 45.5665 98.0935 45.0334 97.4309C44.5004 96.7684 43.857 96.4371 43.1218 96.4003H40.3646V103.394H37.7178V87.9896H44.4452C45.5481 87.9896 46.4855 88.1921 47.2575 88.6154C48.0295 89.0203 48.5809 89.554 48.9486 90.1981C49.3162 90.8423 49.5 91.5048 49.5 92.1674C49.5 93.0508 49.1875 93.8973 48.5809 94.6887C47.956 95.4801 47.0737 95.9954 45.8789 96.2531C46.6142 96.4923 47.2391 96.8788 47.7538 97.4493C48.2685 98.0198 48.5809 98.572 48.6912 99.1609L49.5919 103.394ZM40.383 95.9402H43.71C44.243 95.9402 44.7577 95.7745 45.2356 95.4433C45.7135 95.112 46.1179 94.6703 46.4304 94.0814C46.7428 93.5109 46.8899 92.8667 46.8899 92.1674C46.8899 91.4864 46.7428 90.8607 46.4304 90.2902C46.1179 89.7196 45.7319 89.2779 45.2356 88.9651C44.7393 88.6522 44.243 88.4866 43.71 88.4866H40.383V95.9402Z" fill="#FFE4CC"/>
<path d="M63.4512 98.0382H55.0511C55.0511 98.9032 55.1062 99.6762 55.2165 100.376C55.3268 101.075 55.6025 101.701 56.0437 102.234C56.4848 102.768 57.1465 103.044 58.0472 103.044C58.9479 103.044 59.775 102.842 60.547 102.418C61.319 101.995 61.9623 101.406 62.4403 100.67L62.863 100.946C62.3116 101.756 61.6131 102.4 60.7676 102.86C59.9221 103.32 59.003 103.559 58.0472 103.559C57.2752 103.559 56.5583 103.412 55.8599 103.118C55.1614 102.823 54.5364 102.418 53.985 101.866C53.4336 101.296 53.0292 100.67 52.7351 99.9891C52.441 99.2897 52.2939 98.572 52.2939 97.799C52.2939 97.026 52.441 96.3083 52.7167 95.5905C52.9924 94.8912 53.3968 94.2654 53.9115 93.7133C54.4629 93.1612 55.0695 92.7563 55.7496 92.4618C56.4297 92.1674 57.1649 92.0201 57.9185 92.0201C58.6905 92.0201 59.4074 92.1674 60.0875 92.4618C60.7676 92.7563 61.3558 93.1612 61.8704 93.7133C62.3667 94.2654 62.7527 94.8912 63.0284 95.5905C63.3042 96.2899 63.4328 97.026 63.4328 97.799V98.0382H63.4512ZM55.0695 97.5413H60.6941C60.6757 96.6763 60.6205 95.9034 60.5102 95.2224C60.4 94.5599 60.1426 93.9341 59.7382 93.4004C59.3339 92.8483 58.6905 92.5538 57.8634 92.517C57.0179 92.5722 56.3929 92.8667 55.9885 93.4004C55.5841 93.9525 55.3268 94.5599 55.2165 95.2408C55.1246 95.9218 55.0695 96.6947 55.0695 97.5413Z" fill="#FFE4CC"/>
<path d="M69.9948 103.541C69.2228 103.541 68.506 103.394 67.7891 103.099C67.0906 102.805 66.4657 102.4 65.9142 101.848L66.2635 101.498C66.7414 101.995 67.3112 102.382 67.9545 102.639C68.5979 102.897 69.278 103.044 69.9764 103.044C70.583 103.044 71.0977 102.952 71.5388 102.768C71.9616 102.584 72.2925 102.363 72.513 102.106C72.7336 101.848 72.8439 101.59 72.8439 101.351C72.8439 101.02 72.7336 100.744 72.513 100.504C72.2925 100.265 71.9984 100.063 71.594 99.8602C71.208 99.6578 70.5646 99.3817 69.6456 98.9769L69.0574 98.7192C68.3222 98.4247 67.734 98.1487 67.2744 97.8726C66.8149 97.615 66.4473 97.2469 66.1348 96.8052C65.8223 96.3635 65.6753 95.793 65.6753 95.112C65.6753 94.4311 65.9142 93.8421 66.3738 93.3636C66.8333 92.8851 67.4399 92.517 68.1935 92.2778C68.8184 92.0938 69.425 92.0017 70.0316 92.0017C70.8036 92.0017 71.5204 92.149 72.2189 92.4434C72.9174 92.7379 73.524 93.1612 74.057 93.6765L73.7078 94.0262C73.2115 93.5293 72.6417 93.1428 72.0167 92.8851C71.3918 92.6275 70.7117 92.4802 70.0132 92.4802C69.2596 92.4802 68.6346 92.6275 68.1383 92.9219C67.6421 93.2164 67.3296 93.5477 67.2193 93.8973C67.1825 94.0262 67.1642 94.1182 67.1642 94.1734C67.1642 94.5599 67.3847 94.8912 67.8443 95.1856C68.3038 95.4617 68.9839 95.793 69.9029 96.1979C70.05 96.2531 70.2522 96.3267 70.5279 96.4555L70.969 96.6395C71.8329 97.0076 72.513 97.3389 72.9909 97.5966C73.4688 97.8542 73.8732 98.1671 74.1857 98.5536C74.5166 98.9401 74.682 99.4002 74.682 99.9155C74.682 100.688 74.3695 101.406 73.7446 102.069C73.4688 102.345 73.0093 102.658 72.4027 102.989C71.8145 103.375 71.0058 103.541 69.9948 103.541Z" fill="#FFE4CC"/>
<path d="M79.1118 90.511C78.7442 90.511 78.4134 90.3822 78.156 90.1245C77.8987 89.8669 77.77 89.554 77.77 89.2043C77.77 88.8546 77.8987 88.5418 78.1744 88.2657C78.4317 88.0081 78.7442 87.8608 79.1118 87.8608C79.4611 87.8608 79.7735 87.9896 80.0493 88.2657C80.3066 88.5234 80.4536 88.8362 80.4536 89.2043C80.4536 89.5724 80.325 89.8669 80.0676 90.1245C79.8103 90.3822 79.4794 90.511 79.1118 90.511ZM80.4169 103.394H77.77V92.1674H80.4169V103.394Z" fill="#FFE4CC"/>
<path d="M85.4533 93.7133C86.0047 93.1612 86.6113 92.7563 87.3097 92.4618C88.0082 92.1674 88.7435 92.0201 89.5155 92.0201C90.6918 92.0201 91.7212 92.333 92.6218 92.9403V88.0081H95.2687V103.412H92.6218V102.639C91.666 103.247 90.6367 103.559 89.5155 103.559C88.7435 103.559 88.0266 103.412 87.3281 103.118C86.6296 102.823 86.0047 102.418 85.4533 101.866C84.9018 101.296 84.4974 100.67 84.2033 99.9891C83.9093 99.2897 83.7622 98.572 83.7622 97.799C83.7622 97.026 83.9093 96.3083 84.2033 95.5905C84.4791 94.8728 84.9018 94.247 85.4533 93.7133ZM89.5155 103.044C90.6918 103.044 91.7212 102.694 92.6218 102.014V93.5109C91.7212 92.8483 90.6735 92.4986 89.5155 92.4986C88.578 92.4986 87.8979 92.7931 87.4568 93.382C87.0156 93.971 86.7583 94.6151 86.6664 95.3145C86.5745 96.0138 86.5194 96.842 86.5194 97.7806C86.5194 98.7192 86.5745 99.529 86.6664 100.247C86.7583 100.946 87.0156 101.59 87.4568 102.179C87.8979 102.75 88.578 103.044 89.5155 103.044Z" fill="#FFE4CC"/>
<path d="M109.514 98.0382H101.114C101.114 98.9032 101.169 99.6762 101.279 100.376C101.389 101.075 101.665 101.701 102.106 102.234C102.547 102.768 103.209 103.044 104.11 103.044C104.992 103.044 105.838 102.842 106.61 102.418C107.382 101.995 108.025 101.406 108.503 100.67L108.926 100.946C108.374 101.756 107.676 102.4 106.83 102.86C105.985 103.32 105.066 103.559 104.11 103.559C103.338 103.559 102.621 103.412 101.922 103.118C101.224 102.823 100.599 102.418 100.047 101.866C99.4961 101.296 99.0917 100.67 98.7976 99.9891C98.5035 99.2897 98.3564 98.572 98.3564 97.799C98.3564 97.026 98.5035 96.3083 98.7792 95.5905C99.0549 94.8912 99.4593 94.2654 99.974 93.7133C100.525 93.1612 101.132 92.7563 101.812 92.4618C102.492 92.1674 103.227 92.0201 103.981 92.0201C104.753 92.0201 105.47 92.1674 106.15 92.4618C106.83 92.7563 107.418 93.1612 107.933 93.7133C108.429 94.2654 108.815 94.8912 109.091 95.5905C109.367 96.2899 109.495 97.026 109.495 97.799V98.0382H109.514ZM101.132 97.5413H106.757C106.738 96.6763 106.683 95.9034 106.573 95.2224C106.462 94.5599 106.205 93.9341 105.801 93.4004C105.396 92.8483 104.753 92.5538 103.926 92.517C103.08 92.5722 102.455 92.8667 102.051 93.4004C101.647 93.9525 101.389 94.5599 101.279 95.2408C101.187 95.9218 101.132 96.6947 101.132 97.5413Z" fill="#FFE4CC"/>
<path d="M122.803 97.026V103.394H120.156V96.3451C120.156 95.0568 119.936 94.1366 119.495 93.5477C119.054 92.9587 118.557 92.6643 118.006 92.6643C117.51 92.6643 116.995 92.8851 116.462 93.3084C115.929 93.7317 115.58 94.2838 115.414 94.928C115.341 95.2776 115.285 95.6273 115.267 95.977C115.249 96.3267 115.23 96.7684 115.23 97.3021V103.394H112.583V92.1674H115.23V93.9525C115.524 93.4188 115.984 92.9771 116.609 92.5907C117.234 92.2226 117.896 92.0201 118.576 92.0201C119.201 92.0201 119.77 92.1121 120.285 92.2962C120.8 92.4802 121.259 92.7931 121.664 93.2716C122.05 93.7133 122.344 94.2286 122.528 94.8359C122.711 95.4433 122.803 96.1794 122.803 97.026Z" fill="#FFE4CC"/>
<path d="M135.835 100.891L136.203 101.204C135.946 101.517 135.762 101.737 135.633 101.866C135.082 102.418 134.457 102.823 133.758 103.118C133.06 103.412 132.325 103.559 131.553 103.559C130.781 103.559 130.064 103.412 129.365 103.118C128.667 102.823 128.042 102.418 127.49 101.866C126.939 101.296 126.535 100.67 126.24 99.9891C125.946 99.2897 125.799 98.572 125.799 97.799C125.799 97.026 125.946 96.3083 126.24 95.5905C126.535 94.8912 126.939 94.2654 127.49 93.7133C128.06 93.1612 128.685 92.7563 129.365 92.4618C130.064 92.1674 130.781 92.0201 131.553 92.0201C132.325 92.0201 133.041 92.1674 133.758 92.4618C134.457 92.7563 135.082 93.1612 135.633 93.7133C135.762 93.8421 135.946 94.063 136.203 94.3758L135.835 94.6887C135.688 94.4863 135.504 94.2838 135.302 94.0814C134.824 93.5845 134.255 93.198 133.611 92.9403C132.968 92.6827 132.288 92.5354 131.589 92.5354C130.652 92.5354 129.972 92.8299 129.531 93.4188C129.09 94.0078 128.832 94.6519 128.74 95.3513C128.648 96.0506 128.593 96.8788 128.593 97.8174C128.593 98.756 128.648 99.5658 128.74 100.284C128.832 100.983 129.09 101.627 129.531 102.216C129.972 102.805 130.652 103.099 131.589 103.099C132.288 103.099 132.968 102.971 133.611 102.694C134.255 102.437 134.824 102.05 135.302 101.553C135.504 101.296 135.688 101.093 135.835 100.891Z" fill="#FFE4CC"/>
<path d="M149.658 98.0382H141.258C141.258 98.9032 141.313 99.6762 141.424 100.376C141.534 101.075 141.81 101.701 142.251 102.234C142.692 102.768 143.354 103.044 144.254 103.044C145.155 103.044 145.982 102.842 146.754 102.418C147.526 101.995 148.169 101.406 148.647 100.67L149.07 100.946C148.519 101.756 147.82 102.4 146.975 102.86C146.129 103.32 145.21 103.559 144.254 103.559C143.482 103.559 142.765 103.412 142.067 103.118C141.368 102.823 140.743 102.418 140.192 101.866C139.641 101.296 139.236 100.67 138.942 99.9891C138.648 99.2897 138.501 98.572 138.501 97.799C138.501 97.026 138.648 96.3083 138.924 95.5905C139.199 94.8912 139.604 94.2654 140.119 93.7133C140.67 93.1612 141.277 92.7563 141.957 92.4618C142.637 92.1674 143.372 92.0201 144.126 92.0201C144.898 92.0201 145.614 92.1674 146.295 92.4618C146.975 92.7563 147.563 93.1612 148.077 93.7133C148.574 94.2654 148.96 94.8912 149.235 95.5905C149.511 96.2899 149.64 97.026 149.64 97.799V98.0382H149.658ZM141.277 97.5413H146.901C146.883 96.6763 146.828 95.9034 146.717 95.2224C146.607 94.5599 146.35 93.9341 145.945 93.4004C145.541 92.8483 144.898 92.5538 144.07 92.517C143.225 92.5722 142.6 92.8667 142.196 93.4004C141.791 93.9525 141.534 94.5599 141.424 95.2408C141.332 95.9218 141.277 96.6947 141.277 97.5413Z" fill="#FFE4CC"/>
<path d="M35.9717 73.3401C35.9717 74.113 35.8246 74.8676 35.5305 75.5853C35.2364 76.3031 34.8137 76.9288 34.2439 77.5178C33.6924 78.0699 33.0491 78.5116 32.3322 78.8061C31.6154 79.1005 30.8618 79.2477 30.0897 79.2477C29.3177 79.2477 28.5641 79.1005 27.8473 78.8061C27.1304 78.5116 26.5055 78.0883 25.9173 77.5178C25.3658 76.9472 24.9247 76.3031 24.6306 75.5853C24.3365 74.8676 24.1895 74.1314 24.1895 73.3401C24.1895 72.5671 24.3365 71.8125 24.6306 71.0948C24.9247 70.377 25.3475 69.7329 25.9173 69.1807C26.4871 68.6286 27.1304 68.1869 27.8473 67.8925C28.5641 67.598 29.2994 67.4508 30.0897 67.4508C30.8618 67.4508 31.6154 67.598 32.3322 67.8925C33.0491 68.1869 33.6924 68.6102 34.2439 69.1807C34.7953 69.7329 35.2364 70.377 35.5305 71.0948C35.8246 71.8125 35.9717 72.5671 35.9717 73.3401ZM33.141 73.3401C33.141 72.383 33.0859 71.5365 32.9939 70.8187C32.902 70.1009 32.6263 69.4384 32.1852 68.8495C31.744 68.2421 31.0456 67.9477 30.0897 67.9477C29.1339 67.9477 28.4355 68.2421 27.9943 68.8495C27.5532 69.4568 27.2775 70.1009 27.1856 70.8187C27.0936 71.5365 27.0385 72.383 27.0385 73.3401C27.0385 74.2971 27.0936 75.1436 27.1856 75.8614C27.2775 76.5792 27.5532 77.2417 27.9943 77.8306C28.4355 78.438 29.1339 78.7324 30.0897 78.7324C31.0456 78.7324 31.744 78.438 32.1852 77.8306C32.6263 77.2233 32.902 76.5792 32.9939 75.8614C33.1042 75.1436 33.141 74.2971 33.141 73.3401ZM31.6705 62.905H33.5821L30.3838 66.0153H29.7773L31.6705 62.905Z" fill="#FFE4CC"/>
<path d="M25.237 123.141H20.9542L19.0609 126.399H18.6382L23.5091 117.951H23.6378L28.5272 126.399H27.1302L25.237 123.141ZM22.9577 119.626L21.1564 122.773H25.0348L23.2334 119.626H22.9577Z" fill="#FFE4CC"/>
<path d="M34.6848 120.712V126.38H33.4717V117.933H39.3904C39.6477 117.933 39.905 117.951 40.144 118.007C40.3829 118.062 40.5851 118.135 40.7505 118.246C40.9344 118.356 41.063 118.504 41.1733 118.688C41.2652 118.872 41.3204 119.092 41.3204 119.369C41.3204 119.626 41.2652 119.847 41.1733 120.031C41.0814 120.197 40.9344 120.344 40.7505 120.436C40.5667 120.528 40.3645 120.602 40.144 120.638C39.905 120.675 39.6661 120.694 39.3904 120.694H34.6848V120.712ZM39.1514 120.362C39.3352 120.362 39.5006 120.344 39.6109 120.326C39.7212 120.307 39.8131 120.252 39.8683 120.178C39.9234 120.105 39.9602 120.013 39.9785 119.884C39.9969 119.755 39.9969 119.589 39.9969 119.387C39.9969 119.184 39.9969 119.019 39.9785 118.89C39.9602 118.743 39.9234 118.632 39.8683 118.559C39.8131 118.467 39.7212 118.412 39.6109 118.375C39.5006 118.338 39.3536 118.319 39.1514 118.319H34.6848V120.362H39.1514Z" fill="#FFE4CC"/>
<path d="M50.1798 123.141H45.8971L44.0038 126.399H43.5811L48.452 117.951H48.5807L53.47 126.399H52.0731L50.1798 123.141ZM47.9006 119.626L46.0992 122.773H49.9776L48.1579 119.626H47.9006Z" fill="#FFE4CC"/>
<path d="M62.1644 120.712H59.5911V126.38H58.3779V117.933H64.2966C64.5539 117.933 64.8113 117.951 65.0502 118.007C65.2892 118.062 65.4914 118.135 65.6568 118.246C65.8406 118.356 65.9693 118.504 66.0796 118.688C66.1715 118.872 66.2266 119.092 66.2266 119.369C66.2266 119.626 66.1715 119.847 66.0796 120.031C65.9877 120.197 65.8406 120.344 65.6568 120.436C65.473 120.528 65.2708 120.602 65.0502 120.638C64.8113 120.675 64.5723 120.694 64.2966 120.694H63.543L66.8332 126.362H65.4362L62.1644 120.712ZM59.6095 120.362H64.076C64.2782 120.362 64.4253 120.344 64.5356 120.326C64.6458 120.307 64.7378 120.252 64.7929 120.178C64.848 120.105 64.8848 120.013 64.9032 119.884C64.9216 119.755 64.9216 119.589 64.9216 119.387C64.9216 119.184 64.9216 119.019 64.9032 118.89C64.8848 118.743 64.848 118.632 64.7929 118.559C64.7378 118.467 64.6458 118.412 64.5356 118.375C64.4253 118.338 64.2782 118.319 64.076 118.319H59.6095V120.362Z" fill="#FFE4CC"/>
<path d="M78.4498 118.301H75.0677L75.0493 126.399H73.9648V118.301H70.3438L70.5459 117.933H78.6703L78.4498 118.301Z" fill="#FFE4CC"/>
<path d="M88.2838 123.141H84.0011L82.1078 126.399H81.6851L86.556 117.951H86.6847L91.574 126.399H90.1771L88.2838 123.141ZM86.0046 119.626L84.2033 122.773H88.0816L86.2803 119.626H86.0046Z" fill="#FFE4CC"/>
<path d="M99.4592 120.013L96.4999 126.399H96.0771L100.029 117.933L102.786 123.822L105.507 117.951L109.459 126.399H108.135L105.139 120.013H104.937L102.308 125.699L99.6798 120.013H99.4592Z" fill="#FFE4CC"/>
<path d="M120.45 120.362L120.248 120.73H115.708V126.049H122.343L122.141 126.417H114.513V117.97H121.866L121.663 118.338H115.708V120.362H120.45Z" fill="#FFE4CC"/>
<path d="M135.063 125.111H135.192V117.951H135.56V126.399H134.586L127.785 118.301H127.417V126.399H127.049V117.951H129.053L135.063 125.111Z" fill="#FFE4CC"/>
<path d="M148.371 118.301H144.989L144.97 126.399H143.886V118.301H140.247L140.449 117.933H148.573L148.371 118.301Z" fill="#FFE4CC"/>
<path d="M159.474 117.933H159.915L156.974 123.031V126.38H155.761V123.178L152.746 117.933H154.143L156.808 122.552L159.474 117.933Z" fill="#FFE4CC"/>
<path d="M164.473 126.472V117.933H165.686V126.472H164.473Z" fill="#FFE4CC"/>
<path d="M168.131 126.472V117.933H169.344V126.472H168.131Z" fill="#FFE4CC"/>
</svg>
