<svg width="189" height="128" viewBox="0 0 189 128" fill="none" xmlns="http://www.w3.org/2000/svg">
<path d="M77.5314 9.6069L67.9365 0V19.2138H67.9549L77.5314 9.6069Z" fill="#C2A992"/>
<path d="M93.541 19.2322L103.136 9.6069L93.541 0L83.9277 9.6069L93.541 19.2322Z" fill="#C2A992"/>
<path d="M119.145 19.2138V0L109.532 9.6069L119.127 19.2138H119.145Z" fill="#C2A992"/>
<path d="M93.5412 25.6368L80.7297 12.8092L67.9365 25.6368V48.513H119.164V25.6552L106.334 12.8092L93.5412 25.6368Z" fill="#C2A992"/>
<path d="M7.88576 71.1132L13.6758 79.0085H10.3856L6.28661 73.4137L2.35308 79.0085H1.89355V63.6044H4.54042V75.0885L12.6097 63.6044H13.1795L7.88576 71.1132Z" fill="#C2A992"/>
<path d="M23.5645 68.0028L23.3623 68.4445C22.8476 68.2237 22.3329 68.1133 21.7999 68.1133C21.2668 68.1133 20.8073 68.2789 20.4397 68.6102C20.0537 68.9414 19.7964 69.2727 19.6493 69.6408C19.4839 70.1193 19.392 70.8555 19.392 71.8125V78.9901H16.7451V67.7636H19.392V68.6102C20.0537 67.9476 20.8441 67.6348 21.7999 67.6348C22.1491 67.6348 22.4432 67.6716 22.7006 67.7268C22.9579 67.782 23.252 67.874 23.5645 68.0028Z" fill="#C2A992"/>
<path d="M38.5635 63.6044H41.2103V79.0085H38.5635V63.6044Z" fill="#C2A992"/>
<path d="M55.9702 73.3769C55.9702 74.1499 55.8231 74.8676 55.529 75.567C55.235 76.2663 54.8306 76.8921 54.2791 77.4442C53.7277 77.9963 53.1028 78.4012 52.4043 78.6957C51.7058 78.9901 50.9706 79.1373 50.1986 79.1373C49.4266 79.1373 48.7097 78.9901 48.0112 78.6957C47.3127 78.4012 46.6878 77.9963 46.1364 77.4442C45.5849 76.8737 45.1806 76.2479 44.8865 75.567C44.5924 74.8676 44.4453 74.1499 44.4453 73.3769C44.4453 72.6039 44.5924 71.8862 44.8865 71.1684C45.1806 70.4691 45.5849 69.8433 46.1364 69.2912C46.7062 68.7391 47.3311 68.3342 48.0112 68.0397C48.7097 67.7453 49.4266 67.598 50.1986 67.598C50.9706 67.598 51.6874 67.7453 52.4043 68.0397C53.1028 68.3342 53.7277 68.7391 54.2791 69.2912C54.8306 69.8433 55.235 70.4691 55.529 71.1684C55.8231 71.8862 55.9702 72.6223 55.9702 73.3769ZM53.213 73.3769C53.213 72.4383 53.1579 71.6285 53.066 70.9107C52.9741 70.2114 52.6984 69.5673 52.2756 68.9783C51.8345 68.3894 51.1544 68.0949 50.2169 68.0949C49.2795 68.0949 48.5994 68.3894 48.1583 68.9783C47.7171 69.5673 47.4598 70.2114 47.3679 70.9107C47.276 71.6101 47.2208 72.4383 47.2208 73.3769C47.2208 74.3155 47.276 75.1253 47.3679 75.843C47.4598 76.5424 47.7171 77.1865 48.1583 77.7755C48.5994 78.3644 49.2795 78.6588 50.2169 78.6588C51.1544 78.6588 51.8345 78.3644 52.2756 77.7755C52.7168 77.1865 52.9741 76.5424 53.066 75.843C53.1763 75.1253 53.213 74.3155 53.213 73.3769Z" fill="#C2A992"/>
<path d="M73.3217 67.7637L68.6713 79.1374L65.3995 72.5671L62.2012 79.1374L57.5508 67.7637H60.3815L63.4878 75.4013L66.5942 69.052L69.7006 75.3461L72.807 67.7637H73.3217Z" fill="#C2A992"/>
<path d="M86.133 73.6345H77.7513C77.7513 74.4994 77.8064 75.2724 77.9167 75.9718C78.027 76.6711 78.3027 77.2969 78.7439 77.8306C79.185 78.3643 79.8467 78.6403 80.7474 78.6403C81.6297 78.6403 82.4752 78.4379 83.2472 78.0146C84.0192 77.5913 84.6625 77.0024 85.1404 76.2662L85.5632 76.5423C85.0118 77.3521 84.3133 77.9962 83.4678 78.4563C82.6223 78.9164 81.7032 79.1557 80.7474 79.1557C79.9754 79.1557 79.2585 79.0084 78.5601 78.714C77.8616 78.4195 77.2366 78.0146 76.6852 77.4625C76.1338 76.892 75.7294 76.2662 75.4353 75.5853C75.1412 74.8859 74.9941 74.1682 74.9941 73.3952C74.9941 72.6222 75.1412 71.9045 75.4169 71.1867C75.6926 70.4874 76.097 69.8616 76.6117 69.3095C77.1631 68.7574 77.7697 68.3525 78.4498 68.058C79.1299 67.7636 79.8651 67.6163 80.6187 67.6163C81.3907 67.6163 82.1076 67.7636 82.7877 68.058C83.4678 68.3525 84.056 68.7574 84.5706 69.3095C85.0669 69.8616 85.4529 70.4874 85.7286 71.1867C86.0044 71.8861 86.133 72.6222 86.133 73.3952V73.6345ZM77.7513 73.1375H83.3759C83.3575 72.2726 83.3023 71.4996 83.1921 70.8186C83.0818 70.1561 82.8244 69.5304 82.4201 68.9966C82.0157 68.4445 81.3723 68.1501 80.5452 68.1132C79.6997 68.1685 79.0747 68.4629 78.6703 68.9966C78.266 69.5488 78.0086 70.1561 77.8983 70.837C77.788 71.518 77.7513 72.291 77.7513 73.1375Z" fill="#C2A992"/>
<path d="M92.474 67.7636V78.714C92.474 80.1127 92.1615 81.2537 91.5182 82.1003C90.8197 83.0205 89.8455 83.4806 88.5956 83.4806C87.842 83.4806 87.2354 83.2966 86.7575 82.9469C86.2796 82.5788 85.912 82.1187 85.6914 81.5666H86.298L86.3715 81.677C86.5185 81.9899 86.7207 82.2659 86.9965 82.5052C87.2722 82.7445 87.5663 82.8549 87.8604 82.8549C88.4669 82.8549 88.9081 82.6524 89.2022 82.2291C89.4963 81.8058 89.6617 81.3089 89.7352 80.7568C89.8087 80.1863 89.8455 79.5238 89.8455 78.714V67.7636H92.474ZM91.1322 66.1072C90.7646 66.1072 90.4337 65.9784 90.1764 65.7207C89.919 65.4631 89.7904 65.1502 89.7904 64.8005C89.7904 64.4509 89.919 64.138 90.1947 63.8619C90.4521 63.6043 90.7646 63.457 91.1322 63.457C91.4814 63.457 91.7939 63.5859 92.0696 63.8619C92.3269 64.1196 92.474 64.4324 92.474 64.8005C92.474 65.1686 92.3453 65.4631 92.088 65.7207C91.8307 65.9784 91.5182 66.1072 91.1322 66.1072Z" fill="#C2A992"/>
<path d="M111.702 63.6044V72.5855C111.702 74.9228 111.058 76.6528 109.753 77.7755C108.742 78.6773 107.437 79.1374 105.82 79.1374C105.011 79.1374 104.257 78.9717 103.596 78.6589C102.916 78.346 102.364 77.8675 101.941 77.2233L102.383 76.9657C102.732 77.5362 103.155 77.9595 103.688 78.2356C104.221 78.53 104.772 78.6773 105.342 78.6773C106.408 78.6773 107.29 78.346 107.989 77.7019C108.706 77.0393 109.055 75.8062 109.055 73.9842V63.6228H111.702V63.6044Z" fill="#C2A992"/>
<path d="M126.296 67.7637V78.9901H123.649V78.2171C122.693 78.8245 121.664 79.1373 120.542 79.1373C119.77 79.1373 119.053 78.9901 118.355 78.6957C117.657 78.4012 117.032 77.9963 116.48 77.4442C115.929 76.8737 115.524 76.2479 115.23 75.567C114.936 74.8676 114.789 74.1499 114.789 73.3769C114.789 72.6039 114.936 71.8862 115.23 71.1684C115.524 70.4691 115.929 69.8433 116.48 69.2912C117.05 68.7391 117.675 68.3342 118.355 68.0397C119.053 67.7453 119.77 67.598 120.542 67.598C121.664 67.598 122.693 67.9109 123.649 68.5182V67.7453H126.296V67.7637ZM123.667 77.6466V69.1256C122.766 68.463 121.719 68.1133 120.561 68.1133C119.623 68.1133 118.943 68.4078 118.502 68.9967C118.061 69.5857 117.804 70.2298 117.712 70.9292C117.62 71.6285 117.565 72.4567 117.565 73.3953C117.565 74.3339 117.62 75.1437 117.712 75.8614C117.804 76.5608 118.061 77.2049 118.502 77.7939C118.943 78.3828 119.623 78.6772 120.561 78.6772C121.719 78.6404 122.748 78.3092 123.667 77.6466Z" fill="#C2A992"/>
<path d="M131.038 69.3096C131.589 68.7575 132.196 68.3526 132.894 68.0581C133.593 67.7637 134.328 67.6164 135.1 67.6164C136.276 67.6164 137.306 67.9293 138.206 68.5366V63.6044H140.853V79.0085H138.225V78.2172C137.269 78.8245 136.24 79.1374 135.118 79.1374C134.346 79.1374 133.63 78.9901 132.931 78.6957C132.233 78.4012 131.608 77.9963 131.056 77.4442C130.505 76.8737 130.1 76.2479 129.806 75.567C129.512 74.8676 129.365 74.1499 129.365 73.3769C129.365 72.6039 129.512 71.8862 129.806 71.1684C130.082 70.4691 130.505 69.8617 131.038 69.3096ZM135.118 78.6405C136.295 78.6405 137.324 78.2908 138.225 77.6098V69.1072C137.324 68.4446 136.276 68.095 135.118 68.095C134.181 68.095 133.501 68.3894 133.06 68.9783C132.619 69.5673 132.361 70.2114 132.269 70.9108C132.178 71.6101 132.122 72.4383 132.122 73.3769C132.122 74.3155 132.178 75.1253 132.269 75.843C132.361 76.5424 132.619 77.1865 133.06 77.7755C133.483 78.346 134.181 78.6405 135.118 78.6405Z" fill="#C2A992"/>
<path d="M159.087 67.7637L154.437 79.1374L151.165 72.5671L147.967 79.1374L143.316 67.7637H146.147L149.253 75.4013L152.36 69.052L155.466 75.3461L158.573 67.7637H159.087Z" fill="#C2A992"/>
<path d="M163.113 66.1072C162.746 66.1072 162.415 65.9784 162.157 65.7207C161.9 65.4631 161.771 65.1502 161.771 64.8005C161.771 64.4509 161.9 64.138 162.176 63.8619C162.433 63.6043 162.746 63.457 163.113 63.457C163.463 63.457 163.775 63.5859 164.051 63.8619C164.308 64.1196 164.455 64.4324 164.455 64.8005C164.455 65.1686 164.326 65.4631 164.069 65.7207C163.793 65.9784 163.481 66.1072 163.113 66.1072ZM164.418 78.99H161.771V67.7636H164.418V78.99Z" fill="#C2A992"/>
<path d="M179.252 77.9962C179.252 78.9716 179.05 79.8734 178.664 80.7016C178.278 81.5298 177.653 82.2107 176.825 82.726C175.998 83.2413 174.914 83.499 173.627 83.499C172.451 83.499 171.44 83.2597 170.576 82.7996C169.712 82.3395 169.069 81.677 168.628 80.812L169.069 80.5727C169.455 81.3457 170.043 81.953 170.852 82.3763C171.642 82.7996 172.579 83.0021 173.627 83.0021C174.877 83.0021 175.686 82.542 176.053 81.6034C176.421 80.6832 176.623 79.5421 176.623 78.217C175.667 78.8244 174.638 79.1372 173.517 79.1372C172.745 79.1372 172.028 78.99 171.33 78.6955C170.631 78.4011 170.006 77.9962 169.455 77.4441C168.903 76.8735 168.499 76.2478 168.205 75.5668C167.911 74.8675 167.764 74.1497 167.764 73.3768C167.764 72.6038 167.911 71.886 168.205 71.1683C168.499 70.4689 168.903 69.8432 169.455 69.2911C170.025 68.739 170.649 68.3341 171.33 68.0396C172.028 67.7451 172.745 67.5979 173.517 67.5979C174.638 67.5979 175.667 67.9108 176.623 68.5181V67.7451H179.27V77.9962H179.252ZM173.499 78.6403C174.675 78.6403 175.704 78.309 176.605 77.6281V69.107C175.704 68.4445 174.657 68.0948 173.499 68.0948C172.561 68.0948 171.881 68.3893 171.44 68.9782C170.999 69.5671 170.741 70.2113 170.649 70.9106C170.558 71.61 170.502 72.4382 170.502 73.3768C170.502 74.3154 170.558 75.1252 170.649 75.8429C170.741 76.5423 170.999 77.1864 171.44 77.7753C171.881 78.3459 172.579 78.6403 173.499 78.6403Z" fill="#C2A992"/>
<path d="M184.582 66.1072C184.214 66.1072 183.884 65.9784 183.626 65.7207C183.369 65.4631 183.24 65.1502 183.24 64.8005C183.24 64.4509 183.369 64.138 183.645 63.8619C183.902 63.6043 184.214 63.457 184.582 63.457C184.931 63.457 185.244 63.5859 185.519 63.8619C185.777 64.1196 185.924 64.4324 185.924 64.8005C185.924 65.1686 185.795 65.4631 185.538 65.7207C185.281 65.9784 184.968 66.1072 184.582 66.1072ZM185.887 78.99H183.259V67.7636H185.905V78.99H185.887Z" fill="#C2A992"/>
<path d="M49.5919 103.394H46.8715L46.1914 100.099C45.9525 98.9768 45.5665 98.0934 45.0334 97.4309C44.5004 96.7683 43.857 96.4371 43.1218 96.4003H40.3646V103.394H37.7178V87.9896H44.4452C45.5481 87.9896 46.4855 88.1921 47.2575 88.6154C48.0295 89.0202 48.5809 89.554 48.9486 90.1981C49.3162 90.8422 49.5 91.5048 49.5 92.1673C49.5 93.0507 49.1875 93.8973 48.5809 94.6887C47.956 95.4801 47.0737 95.9954 45.8789 96.253C46.6142 96.4923 47.2391 96.8788 47.7538 97.4493C48.2685 98.0198 48.5809 98.5719 48.6912 99.1609L49.5919 103.394ZM40.383 95.9402H43.71C44.243 95.9402 44.7577 95.7745 45.2356 95.4432C45.7135 95.112 46.1179 94.6703 46.4304 94.0814C46.7428 93.5108 46.8899 92.8667 46.8899 92.1673C46.8899 91.4864 46.7428 90.8607 46.4304 90.2901C46.1179 89.7196 45.7319 89.2779 45.2356 88.965C44.7393 88.6522 44.243 88.4865 43.71 88.4865H40.383V95.9402Z" fill="#C2A992"/>
<path d="M63.4512 98.0383H55.0511C55.0511 98.9032 55.1062 99.6762 55.2165 100.376C55.3268 101.075 55.6025 101.701 56.0437 102.234C56.4848 102.768 57.1465 103.044 58.0472 103.044C58.9479 103.044 59.775 102.842 60.547 102.418C61.319 101.995 61.9623 101.406 62.4403 100.67L62.863 100.946C62.3116 101.756 61.6131 102.4 60.7676 102.86C59.9221 103.32 59.003 103.559 58.0472 103.559C57.2752 103.559 56.5583 103.412 55.8599 103.118C55.1614 102.823 54.5364 102.418 53.985 101.866C53.4336 101.296 53.0292 100.67 52.7351 99.9891C52.441 99.2897 52.2939 98.572 52.2939 97.799C52.2939 97.026 52.441 96.3083 52.7167 95.5905C52.9924 94.8912 53.3968 94.2654 53.9115 93.7133C54.4629 93.1612 55.0695 92.7563 55.7496 92.4618C56.4297 92.1674 57.1649 92.0201 57.9185 92.0201C58.6905 92.0201 59.4074 92.1674 60.0875 92.4618C60.7676 92.7563 61.3558 93.1612 61.8704 93.7133C62.3667 94.2654 62.7527 94.8912 63.0284 95.5905C63.3042 96.2899 63.4328 97.026 63.4328 97.799V98.0383H63.4512ZM55.0695 97.5413H60.6941C60.6757 96.6764 60.6205 95.9034 60.5103 95.2224C60.4 94.5599 60.1426 93.9342 59.7382 93.4004C59.3339 92.8483 58.6905 92.5539 57.8634 92.5171C57.0179 92.5723 56.3929 92.8667 55.9885 93.4004C55.5841 93.9526 55.3268 94.5599 55.2165 95.2408C55.1246 95.9218 55.0695 96.6948 55.0695 97.5413Z" fill="#C2A992"/>
<path d="M69.9943 103.541C69.2223 103.541 68.5055 103.394 67.7886 103.099C67.0901 102.805 66.4652 102.4 65.9138 101.848L66.263 101.498C66.7409 101.995 67.3107 102.382 67.9541 102.639C68.5974 102.897 69.2775 103.044 69.976 103.044C70.5825 103.044 71.0972 102.952 71.5383 102.768C71.9611 102.584 72.292 102.363 72.5125 102.106C72.7331 101.848 72.8434 101.59 72.8434 101.351C72.8434 101.02 72.7331 100.744 72.5125 100.504C72.292 100.265 71.9979 100.063 71.5935 99.8602C71.2075 99.6578 70.5641 99.3817 69.6451 98.9768L69.0569 98.7192C68.3217 98.4247 67.7335 98.1487 67.274 97.8726C66.8144 97.6149 66.4468 97.2469 66.1343 96.8052C65.8219 96.3635 65.6748 95.7929 65.6748 95.112C65.6748 94.431 65.9138 93.8421 66.3733 93.3636C66.8328 92.8851 67.4394 92.517 68.193 92.2778C68.818 92.0937 69.4245 92.0017 70.0311 92.0017C70.8031 92.0017 71.52 92.1489 72.2184 92.4434C72.9169 92.7379 73.5235 93.1612 74.0565 93.6765L73.7073 94.0262C73.211 93.5292 72.6412 93.1428 72.0162 92.8851C71.3913 92.6274 70.7112 92.4802 70.0127 92.4802C69.2591 92.4802 68.6341 92.6274 68.1379 92.9219C67.6416 93.2164 67.3291 93.5477 67.2188 93.8973C67.1821 94.0262 67.1637 94.1182 67.1637 94.1734C67.1637 94.5599 67.3842 94.8911 67.8438 95.1856C68.3033 95.4617 68.9834 95.7929 69.9024 96.1978C70.0495 96.253 70.2517 96.3267 70.5274 96.4555L70.9685 96.6395C71.8324 97.0076 72.5125 97.3389 72.9904 97.5965C73.4683 97.8542 73.8727 98.1671 74.1852 98.5535C74.5161 98.94 74.6815 99.4001 74.6815 99.9154C74.6815 100.688 74.369 101.406 73.7441 102.069C73.4683 102.345 73.0088 102.658 72.4022 102.989C71.8141 103.375 71.0053 103.541 69.9943 103.541Z" fill="#C2A992"/>
<path d="M79.1113 90.511C78.7437 90.511 78.4129 90.3822 78.1555 90.1245C77.8982 89.8669 77.7695 89.554 77.7695 89.2043C77.7695 88.8547 77.8982 88.5418 78.1739 88.2657C78.4312 88.0081 78.7437 87.8608 79.1113 87.8608C79.4606 87.8608 79.7731 87.9897 80.0488 88.2657C80.3061 88.5234 80.4532 88.8363 80.4532 89.2043C80.4532 89.5724 80.3245 89.8669 80.0672 90.1245C79.8098 90.3822 79.479 90.511 79.1113 90.511ZM80.4164 103.394H77.7695V92.1674H80.4164V103.394Z" fill="#C2A992"/>
<path d="M85.4528 93.7133C86.0042 93.1612 86.6108 92.7563 87.3092 92.4618C88.0077 92.1674 88.743 92.0201 89.515 92.0201C90.6913 92.0201 91.7207 92.333 92.6214 92.9403V88.0081H95.2682V103.412H92.6214V102.639C91.6655 103.247 90.6362 103.559 89.515 103.559C88.743 103.559 88.0261 103.412 87.3276 103.118C86.6292 102.823 86.0042 102.418 85.4528 101.866C84.9013 101.296 84.497 100.67 84.2029 99.9891C83.9088 99.2897 83.7617 98.572 83.7617 97.799C83.7617 97.026 83.9088 96.3083 84.2029 95.5905C84.4786 94.8728 84.9013 94.247 85.4528 93.7133ZM89.515 103.044C90.6913 103.044 91.7207 102.694 92.6214 102.014V93.5109C91.7207 92.8483 90.673 92.4986 89.515 92.4986C88.5775 92.4986 87.8974 92.7931 87.4563 93.382C87.0151 93.971 86.7578 94.6151 86.6659 95.3145C86.574 96.0138 86.5189 96.842 86.5189 97.7806C86.5189 98.7192 86.574 99.529 86.6659 100.247C86.7578 100.946 87.0151 101.59 87.4563 102.179C87.8974 102.75 88.5775 103.044 89.515 103.044Z" fill="#C2A992"/>
<path d="M109.514 98.0383H101.114C101.114 98.9032 101.169 99.6762 101.279 100.376C101.389 101.075 101.665 101.701 102.106 102.234C102.547 102.768 103.209 103.044 104.11 103.044C104.992 103.044 105.838 102.842 106.61 102.418C107.382 101.995 108.025 101.406 108.503 100.67L108.926 100.946C108.374 101.756 107.676 102.4 106.83 102.86C105.985 103.32 105.066 103.559 104.11 103.559C103.338 103.559 102.621 103.412 101.922 103.118C101.224 102.823 100.599 102.418 100.047 101.866C99.4961 101.296 99.0917 100.67 98.7976 99.9891C98.5035 99.2897 98.3564 98.572 98.3564 97.799C98.3564 97.026 98.5035 96.3083 98.7792 95.5905C99.0549 94.8912 99.4593 94.2654 99.974 93.7133C100.525 93.1612 101.132 92.7563 101.812 92.4618C102.492 92.1674 103.227 92.0201 103.981 92.0201C104.753 92.0201 105.47 92.1674 106.15 92.4618C106.83 92.7563 107.418 93.1612 107.933 93.7133C108.429 94.2654 108.815 94.8912 109.091 95.5905C109.367 96.2899 109.495 97.026 109.495 97.799V98.0383H109.514ZM101.132 97.5413H106.757C106.738 96.6764 106.683 95.9034 106.573 95.2224C106.462 94.5599 106.205 93.9342 105.801 93.4004C105.396 92.8483 104.753 92.5539 103.926 92.5171C103.08 92.5723 102.455 92.8667 102.051 93.4004C101.647 93.9526 101.389 94.5599 101.279 95.2408C101.187 95.9218 101.132 96.6948 101.132 97.5413Z" fill="#C2A992"/>
<path d="M122.804 97.026V103.394H120.157V96.3451C120.157 95.0568 119.936 94.1366 119.495 93.5477C119.054 92.9587 118.558 92.6643 118.006 92.6643C117.51 92.6643 116.995 92.8851 116.462 93.3084C115.929 93.7317 115.58 94.2838 115.415 94.928C115.341 95.2777 115.286 95.6273 115.268 95.977C115.249 96.3267 115.231 96.7684 115.231 97.3021V103.394H112.584V92.1674H115.231V93.9526C115.525 93.4188 115.984 92.9772 116.609 92.5907C117.234 92.2226 117.896 92.0201 118.576 92.0201C119.201 92.0201 119.771 92.1122 120.286 92.2962C120.8 92.4802 121.26 92.7931 121.664 93.2716C122.05 93.7133 122.344 94.2286 122.528 94.836C122.712 95.4433 122.804 96.1795 122.804 97.026Z" fill="#C2A992"/>
<path d="M135.836 100.891L136.203 101.204C135.946 101.517 135.762 101.737 135.634 101.866C135.082 102.418 134.457 102.823 133.759 103.118C133.06 103.412 132.325 103.559 131.553 103.559C130.781 103.559 130.064 103.412 129.366 103.118C128.667 102.823 128.042 102.418 127.491 101.866C126.939 101.296 126.535 100.67 126.241 99.9891C125.947 99.2897 125.8 98.572 125.8 97.799C125.8 97.026 125.947 96.3083 126.241 95.5905C126.535 94.8912 126.939 94.2654 127.491 93.7133C128.061 93.1612 128.686 92.7563 129.366 92.4618C130.064 92.1674 130.781 92.0201 131.553 92.0201C132.325 92.0201 133.042 92.1674 133.759 92.4618C134.457 92.7563 135.082 93.1612 135.634 93.7133C135.762 93.8421 135.946 94.063 136.203 94.3759L135.836 94.6887C135.689 94.4863 135.505 94.2838 135.303 94.0814C134.825 93.5845 134.255 93.198 133.612 92.9403C132.968 92.6827 132.288 92.5355 131.59 92.5355C130.652 92.5355 129.972 92.8299 129.531 93.4188C129.09 94.0078 128.833 94.6519 128.741 95.3513C128.649 96.0506 128.594 96.8788 128.594 97.8174C128.594 98.756 128.649 99.5658 128.741 100.284C128.833 100.983 129.09 101.627 129.531 102.216C129.972 102.805 130.652 103.099 131.59 103.099C132.288 103.099 132.968 102.971 133.612 102.694C134.255 102.437 134.825 102.05 135.303 101.553C135.505 101.296 135.689 101.093 135.836 100.891Z" fill="#C2A992"/>
<path d="M149.658 98.0383H141.258C141.258 98.9032 141.313 99.6762 141.424 100.376C141.534 101.075 141.81 101.701 142.251 102.234C142.692 102.768 143.354 103.044 144.254 103.044C145.155 103.044 145.982 102.842 146.754 102.418C147.526 101.995 148.169 101.406 148.647 100.67L149.07 100.946C148.519 101.756 147.82 102.4 146.975 102.86C146.129 103.32 145.21 103.559 144.254 103.559C143.482 103.559 142.765 103.412 142.067 103.118C141.368 102.823 140.743 102.418 140.192 101.866C139.641 101.296 139.236 100.67 138.942 99.9891C138.648 99.2897 138.501 98.572 138.501 97.799C138.501 97.026 138.648 96.3083 138.924 95.5905C139.199 94.8912 139.604 94.2654 140.119 93.7133C140.67 93.1612 141.277 92.7563 141.957 92.4618C142.637 92.1674 143.372 92.0201 144.126 92.0201C144.898 92.0201 145.614 92.1674 146.295 92.4618C146.975 92.7563 147.563 93.1612 148.077 93.7133C148.574 94.2654 148.96 94.8912 149.235 95.5905C149.511 96.2899 149.64 97.026 149.64 97.799V98.0383H149.658ZM141.277 97.5413H146.901C146.883 96.6764 146.828 95.9034 146.717 95.2224C146.607 94.5599 146.35 93.9342 145.945 93.4004C145.541 92.8483 144.898 92.5539 144.07 92.5171C143.225 92.5723 142.6 92.8667 142.196 93.4004C141.791 93.9526 141.534 94.5599 141.424 95.2408C141.332 95.9218 141.277 96.6948 141.277 97.5413Z" fill="#C2A992"/>
<path d="M35.9717 73.34C35.9717 74.113 35.8246 74.8675 35.5305 75.5853C35.2364 76.303 34.8137 76.9288 34.2439 77.5177C33.6924 78.0698 33.0491 78.5115 32.3322 78.806C31.6154 79.1005 30.8618 79.2477 30.0897 79.2477C29.3177 79.2477 28.5641 79.1005 27.8473 78.806C27.1304 78.5115 26.5055 78.0882 25.9173 77.5177C25.3658 76.9472 24.9247 76.303 24.6306 75.5853C24.3365 74.8675 24.1895 74.1314 24.1895 73.34C24.1895 72.567 24.3365 71.8125 24.6306 71.0947C24.9247 70.3769 25.3475 69.7328 25.9173 69.1807C26.4871 68.6286 27.1304 68.1869 27.8473 67.8924C28.5641 67.5979 29.2994 67.4507 30.0897 67.4507C30.8618 67.4507 31.6154 67.5979 32.3322 67.8924C33.0491 68.1869 33.6924 68.6102 34.2439 69.1807C34.7953 69.7328 35.2364 70.3769 35.5305 71.0947C35.8246 71.8125 35.9717 72.567 35.9717 73.34ZM33.141 73.34C33.141 72.383 33.0859 71.5364 32.9939 70.8186C32.902 70.1009 32.6263 69.4383 32.1852 68.8494C31.744 68.2421 31.0456 67.9476 30.0897 67.9476C29.1339 67.9476 28.4355 68.2421 27.9943 68.8494C27.5532 69.4567 27.2775 70.1009 27.1856 70.8186C27.0936 71.5364 27.0385 72.383 27.0385 73.34C27.0385 74.297 27.0936 75.1436 27.1856 75.8613C27.2775 76.5791 27.5532 77.2416 27.9943 77.8306C28.4355 78.4379 29.1339 78.7324 30.0897 78.7324C31.0456 78.7324 31.744 78.4379 32.1852 77.8306C32.6263 77.2232 32.902 76.5791 32.9939 75.8613C33.1042 75.1436 33.141 74.297 33.141 73.34ZM31.6705 62.9049H33.5821L30.3838 66.0152H29.7773L31.6705 62.9049Z" fill="#C2A992"/>
<path d="M25.2374 123.141H20.9547L19.0614 126.399H18.6387L23.5096 117.951H23.6383L28.5276 126.399H27.1307L25.2374 123.141ZM22.9582 119.626L21.1569 122.773H25.0353L23.2339 119.626H22.9582Z" fill="#C2A992"/>
<path d="M34.6848 120.712V126.38H33.4717V117.933H39.3904C39.6477 117.933 39.905 117.951 40.144 118.007C40.3829 118.062 40.5851 118.135 40.7505 118.246C40.9344 118.356 41.063 118.504 41.1733 118.688C41.2652 118.872 41.3204 119.092 41.3204 119.368C41.3204 119.626 41.2652 119.847 41.1733 120.031C41.0814 120.197 40.9344 120.344 40.7505 120.436C40.5667 120.528 40.3645 120.602 40.144 120.638C39.905 120.675 39.6661 120.694 39.3904 120.694H34.6848V120.712ZM39.1514 120.362C39.3352 120.362 39.5006 120.344 39.6109 120.326C39.7212 120.307 39.8131 120.252 39.8683 120.178C39.9234 120.105 39.9602 120.013 39.9785 119.884C39.9969 119.755 39.9969 119.589 39.9969 119.387C39.9969 119.184 39.9969 119.019 39.9785 118.89C39.9602 118.743 39.9234 118.632 39.8683 118.559C39.8131 118.467 39.7212 118.411 39.6109 118.375C39.5006 118.338 39.3536 118.319 39.1514 118.319H34.6848V120.362H39.1514Z" fill="#C2A992"/>
<path d="M50.1808 123.141H45.898L44.0048 126.399H43.582L48.453 117.951H48.5817L53.471 126.399H52.074L50.1808 123.141ZM47.9016 119.626L46.1002 122.773H49.9786L48.1589 119.626H47.9016Z" fill="#C2A992"/>
<path d="M62.1644 120.712H59.5911V126.38H58.3779V117.933H64.2966C64.5539 117.933 64.8113 117.951 65.0502 118.007C65.2892 118.062 65.4914 118.135 65.6568 118.246C65.8406 118.356 65.9693 118.504 66.0796 118.688C66.1715 118.872 66.2266 119.092 66.2266 119.368C66.2266 119.626 66.1715 119.847 66.0796 120.031C65.9877 120.197 65.8406 120.344 65.6568 120.436C65.473 120.528 65.2708 120.602 65.0502 120.638C64.8113 120.675 64.5723 120.694 64.2966 120.694H63.543L66.8332 126.362H65.4362L62.1644 120.712ZM59.6095 120.362H64.076C64.2782 120.362 64.4253 120.344 64.5356 120.326C64.6458 120.307 64.7378 120.252 64.7929 120.178C64.848 120.105 64.8848 120.013 64.9032 119.884C64.9216 119.755 64.9216 119.589 64.9216 119.387C64.9216 119.184 64.9216 119.019 64.9032 118.89C64.8848 118.743 64.848 118.632 64.7929 118.559C64.7378 118.467 64.6458 118.411 64.5356 118.375C64.4253 118.338 64.2782 118.319 64.076 118.319H59.6095V120.362Z" fill="#C2A992"/>
<path d="M78.4507 118.301H75.0686L75.0503 126.399H73.9658V118.301H70.3447L70.5469 117.933H78.6713L78.4507 118.301Z" fill="#C2A992"/>
<path d="M88.2843 123.141H84.0016L82.1083 126.399H81.6855L86.5565 117.951H86.6852L91.5745 126.399H90.1776L88.2843 123.141ZM86.0051 119.626L84.2037 122.773H88.0821L86.2808 119.626H86.0051Z" fill="#C2A992"/>
<path d="M99.4602 120.013L96.5009 126.399H96.0781L100.03 117.933L102.787 123.822L105.508 117.951L109.459 126.399H108.136L105.14 120.013H104.938L102.309 125.699L99.6808 120.013H99.4602Z" fill="#C2A992"/>
<path d="M120.451 120.362L120.249 120.73H115.708V126.049H122.344L122.142 126.417H114.514V117.97H121.866L121.664 118.338H115.708V120.362H120.451Z" fill="#C2A992"/>
<path d="M135.064 125.111H135.193V117.951H135.56V126.399H134.586L127.785 118.301H127.417V126.399H127.05V117.951H129.053L135.064 125.111Z" fill="#C2A992"/>
<path d="M148.371 118.301H144.989L144.971 126.399H143.887V118.301H140.247L140.449 117.933H148.574L148.371 118.301Z" fill="#C2A992"/>
<path d="M159.474 117.933H159.915L156.974 123.031V126.38H155.761V123.178L152.746 117.933H154.143L156.808 122.552L159.474 117.933Z" fill="#C2A992"/>
<path d="M164.474 126.472V117.933H165.687V126.472H164.474Z" fill="#C2A992"/>
<path d="M168.132 126.472V117.933H169.345V126.472H168.132Z" fill="#C2A992"/>
</svg>
